<?xml version="1.0" encoding="UTF-8"?>
<!-- Created with Inkscape (http://www.inkscape.org/) -->
<svg width="552.52" height="323.79" version="1.1" viewBox="0 0 552.52 323.79" xml:space="preserve" 
    xmlns="http://www.w3.org/2000/svg" 
    xmlns:cc="http://creativecommons.org/ns#" 
    xmlns:dc="http://purl.org/dc/elements/1.1/" 
    xmlns:rdf="http://www.w3.org/1999/02/22-rdf-syntax-ns#">
    <metadata>
        <rdf:RDF>
            <cc:Work rdf:about="">
                <dc:format>image/svg+xml</dc:format>
                <dc:type rdf:resource="http://purl.org/dc/dcmitype/StillImage"/>
                <dc:title/>
            </cc:Work>
        </rdf:RDF>
    </metadata>
    <defs>
        <clipPath id="clipPath4524">
            <path d="M 0,242.846 H 414.391 V 0 H 0 Z"/>
        </clipPath>
    </defs>
    <g transform="matrix(1.3333 0 0 -1.3333 0 323.79)">
        <g transform="translate(372.89 242.85)">
            <path d="m0 0-191.53-207.31 151.42 159.56h18.129l-74.53-195.09zm-31.797-39.252h13.143l-0.111-0.283h-13.309zm-1.663-1.7h14.14l-0.222-0.567h-14.473zm-1.663-1.701h15.137l-0.333-0.85h-15.636zm-1.664-1.701h16.135l-0.444-1.134h-16.799zm-1.663-1.701h17.132l-0.556-1.417h-17.962z" fill="#ffffff"/>
        </g>
        <g clip-path="url(#clipPath4524)">
            <g transform="translate(414.1 137.4)">
                <path d="m0 0c-0.667 4.652-1.931 9.017-3.66 12.994-1.817 3.928-3.888 7.548-6.244 10.744-4.65 6.449-9.942 11.48-14.957 15.63-10.162 8.195-19.115 13.182-25.31 16.35-1.54 0.817-2.905 1.522-4.104 2.063-1.193 0.563-2.196 1.037-3.004 1.419-0.896 0.423-1.542 0.728-1.948 0.92l-0.594-1.494c0.407-0.195 1.019-0.489 1.844-0.885 0.806-0.386 1.806-0.866 2.995-1.437 1.203-0.551 2.547-1.257 4.058-2.072 6.066-3.173 14.978-8.127 24.835-16.323 4.863-4.145 9.958-9.147 14.356-15.445 1.169-1.529 2.097-3.252 3.124-4.959 0.543-0.839 0.927-1.77 1.376-2.678 0.42-0.921 0.921-1.819 1.287-2.781 1.556-3.821 2.647-7.966 3.178-12.333 0.393-4.38 0.114-8.947-0.915-13.503-0.301-1.129-0.603-2.266-0.907-3.411-0.416-1.112-0.835-2.231-1.256-3.358l-0.316-0.847-0.396-0.817c-0.264-0.546-0.529-1.094-0.796-1.644-0.265-0.55-0.532-1.101-0.799-1.655-0.314-0.529-0.628-1.061-0.944-1.594-0.657-1.051-1.226-2.165-1.964-3.184-0.73-1.024-1.465-2.054-2.204-3.091-0.747-1.03-1.62-1.978-2.43-2.981l-1.243-1.492-1.352-1.413c-3.517-3.878-7.667-7.314-11.964-10.707-8.775-6.59-18.777-12.299-29.56-17.247-2.67-1.211-5.484-2.379-8.257-3.577-2.814-1.074-5.622-2.216-8.502-3.262-5.775-2.065-11.689-4.023-17.765-5.75-24.29-6.97-50.756-11.282-78.277-13.077-27.528-1.724-56.159-0.936-84.859 2.88-14.342 1.946-28.687 4.708-42.842 8.403-1.778 0.431-3.532 0.949-5.291 1.451l-5.278 1.516-5.234 1.666-2.619 0.834-2.59 0.914-5.182 1.833-5.119 1.999-2.559 1.002-2.522 1.087-5.014 2.168c-6.734 3.126-13.18 6.406-19.433 10.208-6.195 3.843-12.129 8.095-17.508 12.934-5.368 4.835-10.186 10.281-13.863 16.393l-1.366 2.296-1.159 2.397c-0.84 1.571-1.392 3.254-2.02 4.905-0.345 0.817-0.553 1.674-0.776 2.527l-0.68 2.552-0.421 2.6c-0.135 0.867-0.31 1.731-0.317 2.609-0.536 6.986 0.698 14.068 3.551 20.462 2.834 6.41 6.97 12.187 11.732 17.302 4.788 5.102 10.135 9.66 15.853 13.616 1.389 1.044 2.89 1.928 4.326 2.897l2.174 1.422 2.235 1.318c1.496 0.867 2.963 1.777 4.475 2.602 1.522 0.809 3.041 1.616 4.558 2.421 1.501 0.833 3.068 1.535 4.605 2.284 1.541 0.724 3.086 1.515 4.614 2.18 3.151 1.336 6.265 2.797 9.413 3.968 1.569 0.615 3.134 1.228 4.695 1.84 1.585 0.563 3.166 1.125 4.743 1.685 3.141 1.159 6.33 2.131 9.487 3.141 12.658 3.948 25.323 6.913 37.758 9.176 24.885 4.518 48.828 6.359 70.903 6.518 11.042 0.084 21.625-0.242 31.671-0.859 10.043-0.667 19.543-1.651 28.44-2.805 17.774-2.447 33.119-5.643 45.528-9.076 6.211-1.698 11.7-3.406 16.439-4.998 1.514-0.529 2.928-1.024 4.293-1.501l1.275 1.38c-5.758 2.107-12.954 4.466-21.504 6.954-3.106 0.924-6.419 1.742-9.874 2.686-3.482 0.822-7.114 1.753-10.935 2.563-7.632 1.665-15.926 3.304-24.85 4.736-8.934 1.342-18.47 2.645-28.577 3.634-10.11 0.895-20.773 1.684-31.937 2.05-11.163 0.361-22.825 0.346-34.895-0.245-12.077-0.508-24.576-1.505-37.391-3.223-12.815-1.711-25.95-4.134-39.239-7.604-3.316-0.891-6.666-1.745-9.992-2.797-1.67-0.508-3.345-1.017-5.023-1.527-1.699-0.578-3.402-1.158-5.109-1.739l-2.567-0.878c-0.854-0.294-1.611-0.6-2.423-0.901-1.599-0.603-3.201-1.208-4.807-1.815l-0.602-0.227c0.052 0.03-0.407-0.167-0.475-0.197l-0.311-0.132-1.245-0.531-2.491-1.078c-1.659-0.73-3.341-1.41-4.981-2.236-1.651-0.797-3.305-1.596-4.963-2.397-1.652-0.822-3.277-1.741-4.922-2.614l-2.465-1.333-2.427-1.456c-1.61-0.997-3.266-1.898-4.848-2.99-1.592-1.073-3.187-2.149-4.785-3.226-1.557-1.176-3.117-2.354-4.68-3.534-3.072-2.473-6.115-5.064-8.99-7.982-5.79-5.752-11.01-12.647-14.879-20.791-3.877-8.107-5.927-17.76-5.305-27.338 0.012-1.206 0.201-2.381 0.361-3.565 0.167-1.181 0.33-2.369 0.526-3.546l0.834-3.451c0.284-1.152 0.563-2.31 0.977-3.396 0.771-2.203 1.509-4.45 2.527-6.496l1.457-3.133 1.665-2.954c4.563-7.815 10.325-14.402 16.491-20.119 0.775-0.708 1.527-1.473 2.327-2.133l2.393-2.001 2.401-1.996 2.463-1.852c3.285-2.505 6.701-4.68 10.108-6.883l5.191-3.074c0.851-0.52 1.751-1.013 2.669-1.494l2.73-1.457 2.735-1.451c0.91-0.481 1.683-0.825 2.531-1.244l4.983-2.407 1.608-0.711 1.355-0.581 2.711-1.157 2.714-1.148 2.736-1.056 5.475-2.098 5.513-1.915 2.756-0.953 2.773-0.866 5.543-1.727c1.853-0.541 3.715-1.038 5.575-1.539 1.86-0.502 3.717-1.019 5.587-1.445 3.732-0.898 7.456-1.815 11.199-2.563 1.869-0.386 3.732-0.806 5.602-1.162l5.61-1.033c1.865-0.361 3.738-0.668 5.612-0.934l5.611-0.839c3.74-0.524 7.48-0.963 11.207-1.421 3.736-0.358 7.457-0.8 11.178-1.083 3.725-0.247 7.434-0.567 11.141-0.707 1.852-0.088 3.702-0.176 5.549-0.264 1.847-0.084 3.693-0.106 5.534-0.161 1.842-0.044 3.681-0.087 5.517-0.131 1.836 3e-3 3.67 7e-3 5.5 0.01 14.642 0.112 29.067 0.921 43.174 2.379 3.524 0.415 7.033 0.789 10.518 1.235 3.479 0.523 6.945 0.972 10.379 1.552 6.871 1.13 13.652 2.372 20.316 3.824 13.33 2.869 26.222 6.376 38.521 10.552 6.154 2.07 12.142 4.371 17.975 6.776 2.926 1.222 5.83 2.56 8.697 3.819 1.366 0.665 2.726 1.328 4.081 1.988l2.025 0.989 1.009 0.493 0.252 0.124c0.258 0.118 0.218 0.11 0.341 0.172l0.507 0.271c10.904 5.542 21.019 11.854 29.879 19.078 4.349 3.718 8.526 7.472 12.074 11.699l1.358 1.54 1.252 1.626c0.813 1.095 1.702 2.11 2.46 3.228 0.749 1.121 1.494 2.235 2.234 3.343 0.746 1.1 1.326 2.31 1.987 3.446 0.317 0.577 0.634 1.152 0.949 1.725 0.269 0.599 0.537 1.197 0.804 1.793 0.266 0.595 0.531 1.188 0.795 1.779l0.393 0.884 0.314 0.918c0.414 1.22 0.825 2.431 1.233 3.634 0.291 1.238 0.58 2.468 0.866 3.689 0.943 4.925 1.163 9.828 0.623 14.498" fill="#ffffff"/>
            </g>
            <g transform="translate(79.226 152.38)">
                <path d="m0 0c0 0.12-0.196 0.211-0.458 0.211h-28.861c-0.262 0-0.458-0.091-0.458-0.211v-13.3c0-0.12 0.196-0.211 0.458-0.211h28.861c0.262 0 0.458 0.091 0.458 0.211zm-0.458 4.183c5.039 0 9.162-1.866 9.162-4.183v-13.3c0-2.317-4.123-4.182-9.162-4.182h-37.958v21.665z" fill="#ffffff"/>
            </g>
            <g transform="translate(124.97 141.63)">
                <path d="m0 0h-21.4v-2.588c0-0.12 0.196-0.211 0.458-0.211h20.942zm8.573 6.56v-13.3h-29.515c-4.974 0-9.032 1.865-9.032 4.152v6.56h29.974v2.588c0 0.12-0.196 0.211-0.458 0.211h-29.516v3.941h29.516c4.974 0 9.031-1.865 9.031-4.152" fill="#ffffff"/>
            </g>
            <g transform="translate(178.51 148.19)">
                <path d="m0 0v-13.3h-8.573v13.3c0 0.12-0.198 0.211-0.459 0.211h-20.484c-0.262 0-0.458-0.091-0.458-0.211v-13.3h-8.573v17.452h29.515c4.974 0 9.032-1.865 9.032-4.152" fill="#ffffff"/>
            </g>
            <g transform="translate(232.44 150.72)">
                <path d="m0 0h-8.704v1.655c0 0.12-0.196 0.211-0.393 0.211h-28.926c-0.262 0-0.458-0.091-0.458-0.211v-4.453c0-0.12 0.196-0.211 0.458-0.211h28.926c4.974 0 9.097-1.865 9.097-4.182v-4.454c0-2.317-4.123-4.182-9.097-4.182h-28.926c-5.04 0-9.097 1.865-9.097 4.182v1.656h8.639v-1.656c0-0.12 0.196-0.21 0.458-0.21h28.926c0.197 0 0.393 0.09 0.393 0.21v4.454c0 0.12-0.196 0.211-0.393 0.211h-28.926c-5.04 0-9.097 1.865-9.097 4.182v4.453c0 2.318 4.057 4.183 9.097 4.183h28.926c4.974 0 9.097-1.865 9.097-4.183z" fill="#ffffff"/>
            </g>
            <g transform="translate(287.63 156.56)">
                <path d="m0 0-4.143-3.972h-18.456v-17.693h-8.704v17.693h-19.241v3.972z" fill="#ffffff"/>
            </g>
            <g transform="translate(334.34 130.24)">
                <path d="m0 0h0.013l-18.305-51.974 96.39 54.633h-77.148l-0.132-0.373z" fill="#ffffff"/>
            </g>
            <g transform="translate(262.97 132.89)">
                <path d="m0 0h-249.76l208.52-39.536z" fill="#ffffff"/>
            </g>
            <g transform="translate(378.03 146.3)">
                <path d="m0 0c0.262 0 0.49 0.09 0.532 0.211l2.047 5.837c0.042 0.12-0.123 0.211-0.384 0.211h-28.862c-0.261 0-0.489-0.091-0.532-0.211l-2.046-5.837c-0.043-0.121 0.122-0.211 0.384-0.211zm9.236 0.211c-0.802-2.287-5.59-4.183-10.629-4.183h-2.552l9.467-6.409-0.359-1.023h-9.424l-11.007 7.432h-15.444l-2.606-7.432h-8.639l7.586 21.634h37.958c5.039 0 8.498-1.895 7.696-4.182z" fill="#ffffff"/>
            </g>
        </g>
    </g>
</svg>
